<svg xmlns="http://www.w3.org/2000/svg" viewBox="0 0 776 776">
    <defs>
        <style>.cls-1{fill:#ffffff;}.cls-2{fill:#ffffff;}</style>
    </defs>
    <circle class="cls-2" cx="217.41" cy="94.92" r="48.26"/>
    <circle class="cls-2" cx="96.51" cy="222.19" r="48.26"/>
    <circle class="cls-2" cx="48.26" cy="387.63" r="48.26"/>
    <circle class="cls-2" cx="96.51" cy="553.08" r="48.26"/>
    <circle class="cls-2" cx="217.41" cy="680.34" r="48.26"/>
    <path class="cls-1"
          d="M631.59,337.8a28.75,28.75,0,0,1,28.81,25.85c.81,8.39,1.24,16.88,1.24,25.48,0,157.45-128.11,285.54-285.56,285.51-22.54,0-43.24,15-49.24,36.72-9.56,34.6,16.21,65.91,49.3,65.91,214,0,388.13-174.12,388.13-388.14S590.15,1,376.14,1c-32.72,0-58.29,30.62-49.61,64.76,5.73,22.54,27.51,37.77,50.77,37.87,74.24.3,141.69,29.31,192.36,76.2,14.81,18.68,15.05,47-.87,65.94-18.16,21.57-57.44,22.17-79,4a6.78,6.78,0,0,0-1.11-.45,178.61,178.61,0,0,0-145.15-37.14C271.75,225,213.32,282.12,199.67,353.73,177.78,468.59,265.23,569,376.14,569A179.76,179.76,0,0,0,540.21,462.65a15.81,15.81,0,0,0-14.39-22.21H378.3c-22.42,0-44.05-13.21-50.83-34.59-11.24-35.43,14.91-68,48.67-68Z"
          transform="translate(-1.48 -1)"/>
</svg>
